<svg width="46" height="46" viewBox="0 0 46 46" fill="none" xmlns="http://www.w3.org/2000/svg">
<path fill-rule="evenodd" clip-rule="evenodd" d="M23 0V1.27778H23.6216V0H23ZM23 3.83333V6.38889H23.6216V3.83333H23ZM23 11.2053V11.5H23.6216L23.6216 11.1892C24.0128 11.1892 24.3994 11.2082 24.7805 11.2453L24.8106 10.9359L24.8407 10.6266C24.4396 10.5875 24.0329 10.5676 23.6216 10.5676L23.6216 8.94444H23V10.5828C22.7996 10.5927 22.6004 10.6073 22.4026 10.6266L22.4327 10.9359L22.4628 11.2453C22.6407 11.228 22.8198 11.2146 23 11.2053ZM23 14.0556V16.6111H23.6216V14.0556H23ZM23 19.1667V21.7222H23.6216V19.1667H23ZM23 24.2778V26.8333H23.6216V24.2778H23ZM23 29.3889V31.9444H23.6216V29.3889H23ZM23 35.4172V37.0556H23.6216L23.6216 35.4324C24.0329 35.4324 24.4396 35.4125 24.8407 35.3734L24.8106 35.0641L24.7805 34.7547C24.3994 34.7918 24.0128 34.8108 23.6216 34.8108L23.6216 34.5H23V34.7948C22.8198 34.7854 22.6407 34.772 22.4628 34.7547L22.4327 35.0641L22.4026 35.3734C22.6004 35.3927 22.7996 35.4073 23 35.4172ZM23 39.6111V42.1667H23.6216V39.6111H23ZM23 44.7222V46H23.6216V44.7222H23ZM35.995 24.2191L35.6857 24.189L35.3763 24.1588C35.4134 23.7778 35.4324 23.3912 35.4324 23H34.5V22.3784H35.4164C35.407 22.1982 35.3937 22.0191 35.3763 21.8411L35.6857 21.811L35.995 21.7809C36.0143 21.9788 36.0289 22.1779 36.0388 22.3784H37.0556V23H36.0541C36.0541 23.4113 36.0341 23.818 35.995 24.2191ZM35.5218 19.3898L35.2243 19.48L34.9269 19.5701C34.7007 18.8235 34.4025 18.108 34.0403 17.4319L34.3143 17.2851L34.5883 17.1383C34.9696 17.8502 35.2836 18.6036 35.5218 19.3898ZM33.2324 15.1128L32.9922 15.3101L32.7521 15.5074C32.2609 14.9096 31.7121 14.3608 31.1142 13.8695L31.3115 13.6294L31.5088 13.3892C32.138 13.9062 32.7155 14.4837 33.2324 15.1128ZM29.4833 12.0334L29.3365 12.3073L29.1898 12.5813C28.5136 12.2192 27.7982 11.921 27.0515 11.6948L27.1417 11.3973L27.2318 11.0998C28.0181 11.3381 28.7714 11.6521 29.4833 12.0334ZM20.0115 11.0998L20.1016 11.3973L20.1917 11.6948C19.4451 11.921 18.7297 12.2192 18.0535 12.5813L17.9067 12.3073L17.76 12.0334C18.4719 11.6521 19.2252 11.3381 20.0115 11.0998ZM15.7344 13.3892L15.9318 13.6294L16.1291 13.8695C15.5312 14.3608 14.9824 14.9096 14.4912 15.5075L14.251 15.3101L14.0109 15.1128C14.5278 14.4837 15.1053 13.9062 15.7344 13.3892ZM12.655 17.1384L12.929 17.2851L13.203 17.4319C12.8408 18.108 12.5426 18.8235 12.3164 19.5701L12.0189 19.48L11.7215 19.3898C11.9597 18.6036 12.2737 17.8502 12.655 17.1384ZM11.2482 21.7809C11.2289 21.9788 11.2143 22.1779 11.2045 22.3784H8.94444V23H11.1892C11.1892 23.4113 11.2092 23.818 11.2482 24.2191L11.5575 24.189L11.8669 24.1589C11.8298 23.7778 11.8108 23.3912 11.8108 23C11.8108 22.6088 11.8298 22.2222 11.8669 21.8412L11.5575 21.811L11.2482 21.7809ZM11.7215 26.6102L12.0189 26.52L12.3164 26.4299C12.5426 27.1765 12.8408 27.892 13.203 28.5681L12.929 28.7149L12.655 28.8617C12.2737 28.1498 11.9597 27.3964 11.7215 26.6102ZM14.0109 30.8872L14.251 30.6899L14.4912 30.4926C14.9824 31.0904 15.5312 31.6392 16.1291 32.1305L15.9318 32.3706L15.7344 32.6108C15.1053 32.0938 14.5278 31.5163 14.0109 30.8872ZM17.76 33.9666L17.9067 33.6926L18.0535 33.4187C18.7297 33.7808 19.4451 34.079 20.1917 34.3052L20.1016 34.6027L20.0115 34.9002C19.2252 34.6619 18.4719 34.3479 17.76 33.9666ZM27.2318 34.9002L27.1417 34.6027L27.0515 34.3052C27.7982 34.079 28.5136 33.7808 29.1898 33.4187L29.3365 33.6926L29.4833 33.9666C28.7714 34.3479 28.0181 34.6619 27.2318 34.9002ZM31.5088 32.6108L31.3115 32.3706L31.1142 32.1305C31.7121 31.6392 32.2609 31.0904 32.7521 30.4925L32.9922 30.6899L33.2324 30.8872C32.7155 31.5163 32.138 32.0938 31.5088 32.6108ZM34.5883 28.8616L34.3143 28.7149L34.0403 28.5681C34.4025 27.892 34.7007 27.1765 34.9269 26.4299L35.2243 26.52L35.5218 26.6102C35.2836 27.3964 34.9696 28.1498 34.5883 28.8616ZM1.27778 23H0V22.3784H1.27778V23ZM6.38889 23H3.83333V22.3784H6.38889V23ZM16.6111 23H14.0556V22.3784H16.6111V23ZM21.7222 23H19.1667V22.3784H21.7222V23ZM26.8333 23H24.2778V22.3784H26.8333V23ZM31.9444 23H29.3889V22.3784H31.9444V23ZM42.1667 23H39.6111V22.3784H42.1667V23ZM46 23H44.7222V22.3784H46V23Z" fill="#CDFF2C"/>
</svg>
