<svg width="51" height="51" viewBox="0 0 51 51" fill="none" xmlns="http://www.w3.org/2000/svg">
<mask id="mask0_826_1172" style="mask-type:alpha" maskUnits="userSpaceOnUse" x="0" y="0" width="51" height="51">
<path d="M42.7255 23.1837C42.6669 22.9301 42.8978 22.5513 42.7255 22.3558C42.5531 22.1601 42.1425 22.4466 41.8977 22.3558L30.3075 18.2164L32.7911 3.3148C32.8573 2.981 32.9369 2.79474 32.7911 2.48694C32.6455 2.17914 33.092 1.82065 32.7911 1.65907C32.4873 1.4982 31.4748 1.60217 31.1354 1.65907C30.796 1.71595 30.5416 2.23588 30.3075 2.48694L8.7829 25.6673C8.60163 25.8545 8.02406 26.2444 7.95503 26.4951C7.88601 26.7459 7.89493 27.07 7.95503 27.323C8.01688 27.5751 7.78307 27.9558 7.95503 28.1509C8.12698 28.346 8.53981 28.057 8.7829 28.1509L20.3731 32.2902L17.8895 47.1919C17.8231 47.5257 17.7437 47.712 17.8895 48.0197C18.0352 48.3275 17.5886 48.686 17.8895 48.8476C18.1163 48.9615 18.4633 48.8451 18.7173 48.8476C18.932 48.8485 19.348 48.9323 19.5452 48.8476C19.7423 48.763 20.2263 48.1757 20.3731 48.0197L41.8977 24.8394C42.0789 24.6523 42.6565 24.2623 42.7255 24.0115C42.7945 23.7608 42.7856 23.4367 42.7255 23.1837Z" fill="black"/>
</mask>
<g mask="url(#mask0_826_1172)">
<rect width="50.5" height="50.5" fill="#CDFF2C"/>
</g>
</svg>
