<svg width="34" height="50" viewBox="0 0 34 50" fill="none" xmlns="http://www.w3.org/2000/svg">
<g id="Vector">
<path d="M33.4384 20.3676C33.3378 20.1313 32.8798 19.5092 32.6796 19.3488C32.4793 19.1884 32.3724 19.4947 32.1204 19.4486L20.6967 16.8703L20.9987 2.39046C21.0048 2.05466 20.5338 2.20501 20.3397 1.93098C20.1458 1.65694 19.8993 1.0175 19.581 0.912272C19.2599 0.808245 18.7802 0.998076 18.4625 1.11181C18.1449 1.2255 18.1854 1.48653 18.003 1.77081L0.842352 28.4907C0.699875 28.7039 0.406017 28.8942 0.382879 29.1497C0.359742 29.4053 0.380781 29.4734 0.482646 29.709C0.586041 29.9434 1.04166 30.5678 1.24142 30.7277C1.44118 30.8877 1.54979 30.5786 1.80066 30.6279L13.2243 33.2063L12.9223 47.6861C12.9161 48.0219 13.3873 47.8716 13.5813 48.1455C13.7753 48.4195 14.0217 49.0591 14.3401 49.1643C14.5787 49.2359 14.6538 49.1058 14.8993 49.0645C15.1066 49.0284 15.2829 49.081 15.4585 48.9647C15.6341 48.8486 15.8034 48.4826 15.918 48.3057L33.0787 21.5858C33.2212 21.3728 33.515 21.1824 33.5381 20.9268C33.5613 20.6712 33.5402 20.6031 33.4384 20.3676Z" fill="black"/>
</g>
</svg>
