<svg width="22" height="22" viewBox="0 0 22 22" fill="none" xmlns="http://www.w3.org/2000/svg">
<path d="M5.2934 7.70452H0.982019C0.839088 7.70452 0.702011 7.76245 0.600944 7.86556C0.499876 7.96867 0.443097 8.10852 0.443097 8.25434V21.4502C0.443097 21.596 0.499876 21.7358 0.600944 21.839C0.702011 21.9421 0.839088 22 0.982019 22H5.2934C5.43633 22 5.57341 21.9421 5.67448 21.839C5.77554 21.7358 5.83232 21.596 5.83232 21.4502V8.25434C5.83232 8.10852 5.77554 7.96867 5.67448 7.86556C5.57341 7.76245 5.43633 7.70452 5.2934 7.70452ZM4.75448 20.9003H1.52094V8.80417H4.75448V20.9003ZM16.6108 7.70452C15.4413 7.70452 14.3042 8.09819 13.3772 8.82506V8.25434C13.3772 8.10852 13.3205 7.96867 13.2194 7.86556C13.1183 7.76245 12.9812 7.70452 12.8383 7.70452H8.52694C8.384 7.70452 8.24693 7.76245 8.14586 7.86556C8.04479 7.96867 7.98801 8.10852 7.98801 8.25434V21.4502C7.98801 21.596 8.04479 21.7358 8.14586 21.839C8.24693 21.9421 8.384 22 8.52694 22H12.8383C12.9812 22 13.1183 21.9421 13.2194 21.839C13.3205 21.7358 13.3772 21.596 13.3772 21.4502V15.4021C13.3772 14.9646 13.5476 14.5451 13.8508 14.2357C14.154 13.9264 14.5652 13.7526 14.994 13.7526C15.4228 13.7526 15.834 13.9264 16.1372 14.2357C16.4404 14.5451 16.6108 14.9646 16.6108 15.4021V21.4502C16.6108 21.596 16.6676 21.7358 16.7686 21.839C16.8697 21.9421 17.0068 22 17.1497 22H21.4611C21.604 22 21.7411 21.9421 21.8422 21.839C21.9432 21.7358 22 21.596 22 21.4502V13.2028C21.9983 11.7451 21.4299 10.3476 20.4196 9.31685C19.4093 8.2861 18.0396 7.70626 16.6108 7.70452ZM20.9222 20.9003H17.6886V15.4021C17.6886 14.673 17.4047 13.9737 16.8994 13.4582C16.394 12.9426 15.7087 12.653 14.994 12.653C14.2794 12.653 13.594 12.9426 13.0886 13.4582C12.5833 13.9737 12.2994 14.673 12.2994 15.4021V20.9003H9.06586V8.80417H12.2994V10.1271C12.2994 10.2409 12.334 10.352 12.3985 10.4449C12.463 10.5379 12.5542 10.6081 12.6595 10.6459C12.7648 10.6836 12.879 10.6871 12.9863 10.6559C13.0937 10.6246 13.1888 10.5601 13.2587 10.4712C13.8122 9.75545 14.5708 9.23372 15.4288 8.97881C16.2868 8.7239 17.2014 8.74851 18.0451 9.04922C18.8887 9.34992 19.6193 9.91172 20.1351 10.6563C20.6508 11.4009 20.926 12.2911 20.9222 13.2028V20.9003ZM3.53436 0.00915022C3.40771 4.35123e-05 3.28062 -0.000691228 3.15388 0.00695081C2.75051 -0.02105 2.34581 0.0357428 1.96483 0.173811C1.58386 0.31188 1.23473 0.528284 0.939069 0.809617C0.643408 1.09095 0.407515 1.43122 0.246001 1.80936C0.0844871 2.18749 0.000792697 2.59543 0.00010225 3.0079C-0.00324519 3.41607 0.0756315 3.82059 0.231841 4.19637C0.38805 4.57215 0.618262 4.91119 0.908201 5.19245C1.19814 5.47372 1.54162 5.69122 1.91735 5.83147C2.29308 5.97171 2.69304 6.03172 3.09244 6.00775H3.12262C3.50868 6.03534 3.89629 5.98507 4.26331 5.85982C4.63033 5.73458 4.96958 5.5368 5.26169 5.27779C5.55379 5.01879 5.79303 4.70362 5.96575 4.35028C6.13846 3.99694 6.24128 3.61236 6.26831 3.21849C6.29535 2.82461 6.24608 2.42916 6.12331 2.05471C6.00055 1.68027 5.8067 1.33416 5.55283 1.03614C5.29896 0.738127 4.99004 0.494046 4.64371 0.317835C4.29738 0.141623 3.92042 0.0367322 3.53436 0.00915022ZM3.49663 4.9114C3.37216 4.92295 3.24688 4.92184 3.12262 4.9081H3.09244C2.83303 4.928 2.57241 4.89249 2.32721 4.80384C2.08201 4.7152 1.85762 4.57537 1.66837 4.39327C1.47912 4.21118 1.32917 3.99082 1.22808 3.74628C1.127 3.50173 1.077 3.23837 1.08129 2.973C1.08558 2.70764 1.14406 2.4461 1.25299 2.20509C1.36192 1.96408 1.51892 1.74889 1.71395 1.57326C1.90898 1.39763 2.13776 1.26542 2.3857 1.18507C2.63363 1.10472 2.89525 1.07799 3.15388 1.1066C3.64842 1.06023 4.14076 1.21619 4.52259 1.54017C4.90443 1.86415 5.14447 2.32961 5.18993 2.83416C5.23538 3.3387 5.08251 3.84101 4.76496 4.23057C4.4474 4.62013 3.99117 4.86503 3.49663 4.9114Z" fill="white"/>
</svg>
