<svg width="37" height="35" viewBox="0 0 37 35" fill="none" xmlns="http://www.w3.org/2000/svg">
<g id="Logo MIDHARD 1" clip-path="url(#clip0_826_1217)">
<path id="Vector" d="M18.0158 30.7454C18.0479 30.6883 18.0872 30.6356 18.1326 30.5883C18.448 30.2976 18.9482 30.4198 19.1595 30.7015C19.1821 30.7313 19.2101 30.7767 19.2401 30.8135C19.2968 30.7259 19.4172 30.6125 19.5149 30.5489C19.8791 30.2969 20.3954 30.4292 20.6183 30.8208C20.6681 30.9105 20.7061 31.006 20.7316 31.1053C20.7908 31.2714 20.793 32.1911 20.7905 32.4945C20.7892 32.5578 20.781 32.6208 20.7661 32.6822C20.7443 32.7773 20.6779 32.8353 20.5855 32.8554C20.4512 32.8843 20.3123 32.885 20.1777 32.8573C20.0661 32.8349 19.9972 32.7614 19.9769 32.6495C19.9691 32.5964 19.9658 32.5424 19.9673 32.4887C19.9665 32.2245 19.9688 31.9601 19.9658 31.6957C19.9646 31.6176 19.959 31.5394 19.9488 31.4619C19.9079 31.2881 19.7414 31.2104 19.5793 31.2712C19.5075 31.298 19.4547 31.3517 19.4397 31.4206C19.4235 31.5007 19.4156 31.5823 19.4164 31.664C19.4125 31.9428 19.4164 32.2217 19.4138 32.5005C19.4132 32.5636 19.405 32.6266 19.3892 32.6878C19.3633 32.7882 19.2873 32.8413 19.1895 32.8593C19.0639 32.8817 18.9353 32.882 18.8095 32.8599C18.6898 32.8394 18.618 32.7651 18.5969 32.6471C18.5881 32.5891 18.5843 32.5304 18.5856 32.4718C18.5846 32.2025 18.5846 31.9334 18.5856 31.6645C18.5856 31.5803 18.5848 31.4981 18.5586 31.4185C18.5151 31.286 18.3401 31.2021 18.1848 31.2825C18.1526 31.2986 18.1244 31.3213 18.1019 31.3493C18.0795 31.3774 18.0634 31.4099 18.0547 31.4448C18.0372 31.5253 18.0354 31.6052 18.0342 31.6876C18.0307 31.9663 18.0336 32.2453 18.0322 32.5242C18.0324 32.5728 18.0276 32.6214 18.0177 32.6692C17.9944 32.7762 17.9212 32.8383 17.817 32.8582C17.6867 32.8832 17.5529 32.8837 17.4225 32.8593C17.2987 32.8359 17.228 32.7574 17.2119 32.6283C17.2052 32.5651 17.2025 32.5015 17.2036 32.4379C17.203 31.9143 17.203 31.3909 17.2036 30.8674C17.2036 30.8135 17.2052 30.7598 17.2094 30.7062C17.2214 30.553 17.3 30.4568 17.4493 30.4344C17.5656 30.4153 17.6844 30.4183 17.7996 30.4425C17.9043 30.4654 18.0158 30.535 18.0158 30.7454Z" fill="#FAF4FF"/>
<path id="Vector_2" d="M13.8648 30.7898C13.8662 30.7457 13.8639 30.7019 13.8581 30.6582C13.8334 30.509 13.7562 30.4366 13.6027 30.4238C13.5199 30.4156 13.4366 30.4137 13.3535 30.418C13.1922 30.4287 13.0816 30.519 13.0684 30.6753C13.0559 30.6522 13.0395 30.6312 13.0201 30.6132C12.7984 30.4167 12.5478 30.3807 12.2715 30.458C12.1032 30.5049 11.9618 30.6012 11.8363 30.7209C11.5605 30.9836 11.4221 31.2962 11.4389 31.653C11.4421 31.7198 11.4503 31.7862 11.4633 31.8515C11.4922 32.0033 11.5499 32.148 11.6332 32.2779L11.6348 32.2803C11.7562 32.4659 11.9294 32.6121 12.1472 32.7166C12.1785 32.7316 12.2105 32.7451 12.2432 32.7568C12.4996 32.8493 12.7558 32.8187 12.995 32.6515C13.0195 32.6344 13.0611 32.5834 13.0616 32.5834C13.0719 32.917 12.9775 33.0698 12.8184 33.1283C12.7912 33.1383 12.7637 33.151 12.7354 33.1548C12.6483 33.1662 12.5598 33.1602 12.4748 33.1377C12.3644 33.1071 12.2697 33.0495 12.1767 32.9851C12.0837 32.9206 11.99 32.9217 11.9088 32.9975C11.8342 33.0666 11.7565 33.1409 11.7085 33.2285C11.6632 33.31 11.6457 33.379 11.6529 33.4395C11.6616 33.5149 11.7095 33.5778 11.7913 33.6369C11.7952 33.6399 11.799 33.6434 11.8026 33.6459C11.9243 33.7322 12.0575 33.8009 12.1984 33.8499C12.242 33.8649 12.2866 33.8778 12.3321 33.8885C12.3578 33.8947 12.3832 33.9015 12.4086 33.9086C12.5692 33.9373 12.7398 33.9319 12.9205 33.893C13.2853 33.8138 13.5468 33.5883 13.7401 33.2762C13.7409 33.2749 13.7417 33.2736 13.7424 33.2723C13.8119 33.1582 13.8518 33.0105 13.8585 32.8607C13.8623 32.8215 13.8644 32.7817 13.8646 32.741C13.8669 32.0904 13.8652 31.4398 13.8648 30.7898ZM12.65 31.9998C12.4428 32.0041 12.2483 31.8168 12.2485 31.6128C12.249 31.5565 12.2624 31.5008 12.2878 31.4505C12.3542 31.3163 12.4956 31.2157 12.6435 31.2174C12.7946 31.2191 12.9281 31.3156 12.9889 31.4507C13.0112 31.5 13.0231 31.5531 13.0239 31.607C13.027 31.8162 12.8565 31.9953 12.65 31.9998Z" fill="#FAF4FF"/>
<path id="Vector_3" d="M22.9942 30.4508C22.5952 30.3113 22.2034 30.3387 21.8287 30.5324C21.5324 30.6857 21.3303 30.9265 21.2384 31.2485C21.1641 31.5071 21.1573 31.7719 21.2354 32.0308C21.3787 32.5065 21.6998 32.855 22.3002 32.9205C22.501 32.9423 22.7016 32.9316 22.9013 32.9143C23.0185 32.9053 23.1336 32.8781 23.2426 32.8342C23.4955 32.7304 23.5653 32.5495 23.4438 32.3041C23.3428 32.1003 23.2212 32.0601 23.0035 32.1524C22.8613 32.2129 22.7114 32.2076 22.5595 32.2142C22.4329 32.22 22.2906 32.174 22.1857 32.1078C22.1353 32.0759 22.0837 32.0096 22.0603 31.9162C22.2076 31.9162 23.1352 31.9132 23.158 31.9132C23.3541 31.9132 23.5153 31.7991 23.5838 31.6165C23.6178 31.5268 23.6144 31.4345 23.6178 31.3416C23.6331 30.9811 23.3795 30.5853 22.9942 30.4508ZM22.808 31.3562C22.8038 31.4221 22.7606 31.4853 22.6947 31.4853H22.0603C22.0603 31.4322 22.1157 31.3341 22.1413 31.3052C22.2845 31.1423 22.3679 31.1192 22.568 31.1186C22.7126 31.1177 22.8154 31.2372 22.808 31.3562Z" fill="#FAF4FF"/>
<path id="Vector_4" d="M24.978 32.9191C24.6241 32.9197 24.3428 32.8341 24.0795 32.681C23.9703 32.6176 23.9254 32.5376 23.9705 32.3809C24.0018 32.2721 24.0684 32.1747 24.1377 32.0863C24.1878 32.0227 24.2606 32.0131 24.3368 32.0253C24.4197 32.0381 24.4955 32.0904 24.5691 32.131C24.6246 32.1619 24.6815 32.1711 24.7389 32.1983C24.8658 32.2541 25.0101 32.2567 25.112 32.2362C25.1651 32.2248 25.2122 32.2362 25.2244 32.1758C25.2321 32.1383 25.2043 32.0852 25.1264 32.064C25.0418 32.0405 24.9553 32.0274 24.8688 32.0122C24.6804 31.9784 24.501 31.9065 24.3415 31.8009C24.1754 31.6935 24.0923 31.5271 24.0547 31.34C24.0281 31.2152 24.0253 31.0865 24.0463 30.9606C24.0801 30.7708 24.1731 30.6241 24.339 30.5256C24.4325 30.4719 24.5342 30.434 24.64 30.4135C25.0105 30.3351 25.3694 30.3694 25.714 30.528C25.7583 30.5485 25.7994 30.5749 25.8365 30.6066C25.8881 30.6511 25.9071 30.7102 25.8896 30.7791C25.8602 30.8932 25.8046 30.999 25.7273 31.088C25.6616 31.1645 25.58 31.1801 25.4882 31.1499C25.4374 31.1317 25.3878 31.1111 25.3392 31.088C25.2163 31.0247 25.023 31.0155 24.9031 31.0324C24.8425 31.0426 24.7873 31.0745 24.7838 31.1234C24.7832 31.1857 24.8271 31.2475 24.9607 31.2715C25.0174 31.2867 25.0752 31.2976 25.1334 31.3036C25.3058 31.3218 25.4663 31.3773 25.6243 31.4447C25.8215 31.5286 25.9352 31.6817 25.9773 31.8836C26.0129 32.0471 26.0084 32.2167 25.9641 32.3779C25.9063 32.5849 25.7789 32.7273 25.5774 32.8073C25.4254 32.8668 25.1274 32.9214 24.978 32.9191Z" fill="#FAF4FF"/>
<path id="Vector_5" d="M16.7215 30.771C16.7231 30.7017 16.7105 30.6325 16.6845 30.5681C16.6618 30.5165 16.6265 30.4737 16.5721 30.4589C16.4126 30.4159 16.2662 30.4195 16.0955 30.4478C15.995 30.464 15.9306 30.5811 15.9113 30.6753C15.7295 30.4343 15.3256 30.385 15.0658 30.4754C14.9133 30.5295 14.7743 30.6156 14.6579 30.728C14.3093 31.0564 14.1822 31.4599 14.2841 31.9273C14.3634 32.2919 14.5888 32.5535 14.9011 32.7468C14.9824 32.7954 15.0717 32.8292 15.1648 32.8468C15.2243 32.8553 15.2842 32.8598 15.3443 32.8603C15.6184 32.8637 15.8201 32.7667 15.9165 32.6194C15.923 32.6507 15.9326 32.7151 15.9464 32.735C15.9678 32.7708 15.9984 32.7999 16.0349 32.8198C16.054 32.8307 16.0746 32.8391 16.096 32.8444C16.23 32.8784 16.3622 32.8742 16.496 32.8528C16.5855 32.8384 16.6634 32.7778 16.6849 32.7237C16.6933 32.7027 16.7208 32.6006 16.7208 32.5259C16.7207 32.4858 16.7208 31.3163 16.7215 30.771ZM15.4791 31.245C15.7057 31.2461 15.8643 31.4385 15.8683 31.6411C15.8728 31.8768 15.663 32.0478 15.4849 32.0405C15.2556 32.0489 15.0728 31.8292 15.0781 31.6466C15.0849 31.431 15.2662 31.2444 15.4791 31.245Z" fill="#FAF4FF"/>
<path id="Vector_6" d="M7.63165 24.8174C7.63255 24.7292 7.62713 24.6412 7.61545 24.5539C7.59108 24.3854 7.50941 24.261 7.33099 24.2216C7.30721 24.2163 7.2842 24.2058 7.2602 24.2032C7.09899 24.1863 6.9371 24.1814 6.77658 24.2041C6.64223 24.2227 6.52669 24.2771 6.44262 24.3944C6.33716 24.5417 6.2208 24.6806 6.11104 24.8247C5.74582 25.3034 5.38096 25.7823 5.0165 26.2616C4.98852 26.2982 4.9662 26.3417 4.91818 26.3672C4.74723 26.1439 4.58046 25.9268 4.4144 25.7091C4.08814 25.2807 3.76234 24.8519 3.43699 24.4231C3.35984 24.321 3.26582 24.2507 3.14064 24.2223C2.93993 24.175 2.73091 24.176 2.53061 24.2248C2.49911 24.2326 2.43182 24.2659 2.40135 24.2816C2.30472 24.331 2.24842 24.4528 2.2474 24.5828C2.2474 25.2135 2.24219 28.5868 2.24219 28.8051C2.24219 28.9085 2.31288 29.0483 2.43556 29.1004C2.47211 29.1149 2.50962 29.1271 2.54783 29.1368C2.60469 29.1509 2.6627 29.1597 2.72115 29.1633C2.79938 29.1684 2.87787 29.1684 2.9561 29.1633C3.02919 29.159 3.10169 29.1477 3.17258 29.1293C3.33118 29.0858 3.41501 28.9717 3.43936 28.8137C3.44832 28.7561 3.4465 28.6966 3.44662 28.6379C3.44662 27.9231 3.44662 27.2085 3.44662 26.4939C3.44662 26.4466 3.44956 26.3997 3.45171 26.3327C3.48037 26.3575 3.49578 26.3665 3.50586 26.3802C3.56432 26.4588 3.62107 26.5389 3.67907 26.6172C3.93181 26.96 4.18171 27.3046 4.43807 27.6444C4.66815 27.9486 5.12502 28.0107 5.42273 27.6429C5.58575 27.4414 5.73098 27.2256 5.8839 27.0163C6.03117 26.8148 6.17754 26.6125 6.32639 26.4121C6.34429 26.3881 6.35516 26.3468 6.40851 26.3554V26.5001C6.40851 27.2002 6.40761 27.9002 6.40965 28.6003C6.41127 28.693 6.41973 28.7854 6.43491 28.8769C6.4509 28.9815 6.51592 29.0533 6.61108 29.0961C6.69626 29.1346 6.78495 29.1622 6.87956 29.1642C6.97754 29.1654 7.07566 29.1674 7.17341 29.1633C7.22654 29.1612 7.27944 29.1483 7.332 29.1378C7.44733 29.1151 7.52345 29.043 7.56674 28.9368C7.58794 28.8876 7.60281 28.8358 7.61103 28.7827C7.62332 28.6953 7.62987 28.6075 7.63062 28.5193C7.63251 27.2849 7.63285 26.051 7.63165 24.8174Z" fill="#FAF4FF"/>
<path id="Vector_7" d="M14.928 26.5584C14.9261 26.1799 14.8276 25.8085 14.6417 25.479C14.4498 25.135 14.182 24.8601 13.8636 24.6325C13.4711 24.3519 13.0309 24.2003 12.5507 24.1864C12.0665 24.1722 11.5817 24.1785 11.097 24.1795C11.0188 24.1817 10.9411 24.1932 10.8655 24.2136C10.7326 24.2463 10.6404 24.3287 10.6021 24.4628C10.5887 24.5096 10.5796 24.5576 10.575 24.6062C10.5697 24.6644 10.5706 24.7233 10.5705 24.782C10.5705 25.4032 10.5705 26.0245 10.5705 26.6458C10.5705 27.2818 10.5705 27.9176 10.5705 28.5537C10.5685 28.671 10.582 28.7883 10.6105 28.9022C10.6422 29.0212 10.7197 29.0964 10.8347 29.1332C10.919 29.1595 11.0069 29.1726 11.0952 29.1715C11.5799 29.1702 12.0645 29.1702 12.5491 29.1715C12.6812 29.17 12.8128 29.1554 12.942 29.1276C13.3469 29.0471 13.7235 28.8619 14.0342 28.5903C14.4647 28.2175 14.7585 27.7616 14.8807 27.2004C14.9259 26.9881 14.9301 26.7736 14.928 26.5584ZM13.5254 27.349C13.3398 27.6322 13.0825 27.8296 12.7494 27.9155C12.6646 27.9384 12.5774 27.9519 12.4896 27.9555C12.2841 27.9611 12.0784 27.9594 11.8727 27.9585H11.7934C11.7934 27.9232 11.7946 27.8799 11.7943 27.8474C11.7928 27.686 11.7935 27.5246 11.7935 27.3629C11.7935 26.7755 11.7935 26.1883 11.7935 25.601C11.7935 25.543 11.7957 25.485 11.7973 25.4084H11.9481C12.1195 25.4084 12.2912 25.4126 12.4625 25.4075C13.012 25.3917 13.5982 25.8571 13.692 26.4479C13.7432 26.7706 13.7048 27.0752 13.5254 27.349Z" fill="#FAF4FF"/>
<path id="Vector_8" d="M30.2129 28.5505C30.1789 28.4486 30.1429 28.3473 30.1005 28.2486C29.9616 27.9251 29.8194 27.6029 29.6749 27.2722C29.7041 27.2401 29.7237 27.2187 29.7428 27.1968C29.8443 27.0838 29.9308 26.9581 30.0003 26.823C30.1521 26.5214 30.1937 26.2 30.1767 25.8676C30.1609 25.4929 30.0228 25.1337 29.7837 24.8447C29.5711 24.5842 29.2915 24.4144 28.9822 24.2934C28.7801 24.2142 28.5688 24.1802 28.3508 24.1802C27.8749 24.1819 27.4003 24.1795 26.925 24.1817C26.8321 24.1825 26.7394 24.1905 26.6478 24.2054C26.4592 24.2361 26.3513 24.3414 26.3194 24.5306C26.3046 24.6223 26.2974 24.7152 26.298 24.8079C26.2965 26.0465 26.2965 27.285 26.298 28.5237C26.298 28.6211 26.3102 28.7187 26.3201 28.8159C26.3382 28.9945 26.4419 29.0979 26.6131 29.1385C26.8017 29.1833 26.9912 29.1779 27.1809 29.1467C27.21 29.1422 27.2385 29.1353 27.2663 29.1259C27.3633 29.0919 27.435 29.0309 27.4742 28.9324C27.5091 28.841 27.5262 28.7433 27.5243 28.6455C27.5236 28.4006 27.5238 28.1559 27.5247 27.911C27.5247 27.8789 27.5339 27.8468 27.5401 27.8067H28.5775C28.599 27.8545 28.6217 27.9033 28.6426 27.9525C28.7518 28.209 28.8608 28.4655 28.9695 28.7219C29.0081 28.8119 29.0457 28.9024 29.0894 28.9898C29.1693 29.1499 29.33 29.2445 29.4972 29.219C29.7111 29.1871 29.9134 29.1002 30.084 28.9671C30.2223 28.8607 30.2701 28.7194 30.2129 28.5505ZM28.9531 26.1418C28.9012 26.3876 28.6681 26.5794 28.4168 26.5837C28.1479 26.5882 27.5333 26.5867 27.5125 26.5867V25.4052C27.5431 25.4037 27.6058 25.4062 27.6388 25.4062C27.8835 25.4062 28.1282 25.4071 28.3727 25.4056C28.5615 25.4045 28.7165 25.4827 28.8381 25.618C28.9725 25.7674 28.9933 25.9519 28.9531 26.1418Z" fill="#FAF4FF"/>
<path id="Vector_9" d="M18.7042 27.1988C18.5327 27.1988 17.1962 27.1962 16.9196 27.1962C16.9196 27.2465 16.9189 28.1343 16.9184 28.5404C16.9184 28.6042 16.9214 28.6684 16.9128 28.731C16.9031 28.7984 16.887 28.8645 16.8647 28.929C16.8502 28.9735 16.8247 29.0138 16.7907 29.0461C16.7566 29.0782 16.7151 29.1015 16.6698 29.1137C16.6 29.1356 16.5282 29.1501 16.4554 29.1572C16.3627 29.1647 16.2695 29.1649 16.1766 29.158C16.1036 29.1527 16.0314 29.139 15.9614 29.1174C15.8173 29.072 15.7325 28.9714 15.7148 28.82C15.7039 28.7376 15.6977 28.6547 15.6962 28.5717C15.695 27.2895 15.695 26.0074 15.6962 24.7253C15.6964 24.6617 15.7012 24.5981 15.7106 24.5354C15.7381 24.3457 15.8418 24.2363 16.0287 24.1997C16.2081 24.1648 16.389 24.1599 16.5678 24.1997C16.6341 24.2157 16.6977 24.2414 16.7564 24.2761C16.8312 24.3189 16.8822 24.3859 16.8914 24.4752C16.9027 24.582 16.9164 24.6891 16.9172 24.7961C16.9202 25.1973 16.9184 25.5985 16.9184 25.9999V26.1656C16.9622 26.1656 16.9771 26.1656 16.995 26.1656C17.5388 26.1662 18.0825 26.1662 18.6263 26.1656H18.7056C18.7056 26.1065 18.7056 26.0656 18.7056 26.016C18.7066 25.6 18.7056 25.184 18.7064 24.7681C18.7064 24.7045 18.7072 24.6407 18.7122 24.5775C18.7302 24.3508 18.8419 24.2329 19.0645 24.1945C19.2238 24.1667 19.3867 24.1669 19.5459 24.1954C19.5556 24.1971 19.5657 24.1967 19.575 24.199C19.7938 24.2575 19.9029 24.3339 19.9167 24.591C19.9206 24.6642 19.9233 24.7383 19.9233 24.8109C19.9237 26.0588 19.9237 27.3067 19.9233 28.5545C19.9233 28.6226 19.919 28.6916 19.9175 28.7601C19.9157 28.8408 19.8835 28.9123 19.8469 28.9814C19.8187 29.0339 19.7732 29.0748 19.7182 29.0972C19.6782 29.115 19.6365 29.1285 19.5936 29.1373C19.3946 29.1756 19.195 29.1792 18.9979 29.1274C18.8343 29.0844 18.7373 28.9767 18.7192 28.8067C18.7109 28.7239 18.7069 28.6406 18.7072 28.5575C18.7049 28.1561 18.7042 27.3889 18.7042 27.1988Z" fill="#FAF4FF"/>
<path id="Vector_10" d="M25.6088 28.5706C25.5831 28.4864 25.5514 28.4044 25.514 28.3248C25.2466 27.7701 24.9779 27.2159 24.7079 26.6625C24.4628 26.1566 24.2179 25.6505 23.9734 25.1446C23.8689 24.9292 23.7673 24.7119 23.6581 24.4987C23.4556 24.1037 23.0011 24.0932 22.7334 24.3071C22.6298 24.39 22.5706 24.4998 22.5152 24.6148C22.2207 25.2264 21.9254 25.8382 21.6293 26.4499C21.321 27.088 21.0128 27.7262 20.7046 28.3644C20.6756 28.4263 20.6505 28.4901 20.6295 28.5552C20.5848 28.6881 20.6157 28.8065 20.7109 28.9069C20.748 28.9461 20.789 28.981 20.8333 29.0116C20.9503 29.0921 21.0786 29.1548 21.2139 29.1978C21.2512 29.2094 21.2896 29.2171 21.3284 29.2212C21.5012 29.2409 21.6343 29.1758 21.7269 29.0296C21.7555 28.984 21.7815 28.9369 21.8049 28.8883C21.899 28.695 21.9911 28.5006 22.0855 28.3075C22.1173 28.242 22.1421 28.1724 22.1936 28.1131H24.0548C24.1295 28.2674 24.1991 28.4126 24.2701 28.5569C24.3453 28.7106 24.4204 28.8643 24.4977 29.0169C24.5848 29.1888 24.7773 29.274 24.9685 29.2195C25.1432 29.1713 25.3069 29.0895 25.4504 28.9786C25.4769 28.9572 25.5018 28.9337 25.5247 28.9082C25.6148 28.8116 25.649 28.6986 25.6088 28.5706ZM22.6801 27.0799L22.7799 26.8802L22.8988 26.6423L23.1065 26.2264L23.1179 26.205L23.1279 26.2251L23.3364 26.6423L23.4591 26.8879L23.46 26.8894L23.555 27.0797L22.6801 27.0799Z" fill="#FAF4FF"/>
<path id="Vector_11" d="M8.4768 24.768C8.4768 24.7141 8.47917 24.6606 8.48031 24.6066C8.482 24.5313 8.51022 24.4638 8.54102 24.397C8.59144 24.2879 8.68977 24.2427 8.79649 24.2193C8.98336 24.1772 9.17723 24.177 9.36426 24.2183C9.42587 24.2335 9.48457 24.2585 9.53805 24.2928C9.57821 24.3168 9.61201 24.3502 9.63659 24.3902C9.66115 24.43 9.67577 24.4752 9.67919 24.5218C9.68825 24.619 9.69857 24.7169 9.69867 24.8143C9.70002 26.0716 9.70002 27.3291 9.69867 28.5866C9.69867 28.6547 9.69347 28.7234 9.68735 28.7915C9.6656 29.0154 9.55061 29.1405 9.32949 29.1713C9.17417 29.1929 9.01693 29.1989 8.8615 29.1713C8.79908 29.1599 8.73851 29.14 8.68161 29.1118C8.63717 29.0908 8.59818 29.0598 8.56765 29.0212C8.53713 28.9829 8.51587 28.9377 8.50557 28.8898C8.48224 28.7936 8.47656 28.6971 8.47656 28.5986C8.47691 27.9577 8.47656 25.4041 8.4768 24.768Z" fill="#FAF4FF"/>
<path id="Vector_12" d="M35.3029 26.5616C35.301 26.1833 35.2025 25.8119 35.0167 25.4824C34.8249 25.1384 34.5569 24.8635 34.2387 24.6359C33.8461 24.3553 33.4059 24.2037 32.9258 24.1898C32.4415 24.1757 31.9568 24.1819 31.4721 24.1829C31.3938 24.1851 31.3161 24.1966 31.2405 24.217C31.1078 24.2497 31.0155 24.3319 30.9772 24.4662C30.9637 24.5131 30.9547 24.561 30.95 24.6094C30.9449 24.6678 30.9457 24.7267 30.9455 24.7854C30.9455 25.4066 30.9455 26.0279 30.9455 26.6492C30.9455 27.2852 30.9455 27.921 30.9455 28.5569C30.9436 28.6744 30.9571 28.7915 30.9855 28.9056C31.0172 29.0246 31.0947 29.0998 31.2097 29.1366C31.2938 29.1629 31.3818 29.176 31.4702 29.1747C31.9549 29.1734 32.4394 29.1734 32.924 29.1747C33.0561 29.1734 33.1878 29.1589 33.3169 29.131C33.7217 29.0507 34.0985 28.8654 34.4091 28.5935C34.8397 28.2208 35.1334 27.765 35.2556 27.2039C35.3008 26.9915 35.3049 26.7772 35.3029 26.5616ZM33.9005 27.3524C33.7151 27.6357 33.4575 27.833 33.1246 27.9189C33.0396 27.9418 32.9525 27.9551 32.8647 27.9587C32.6592 27.9645 32.4535 27.9626 32.2478 27.9619H32.1685C32.1685 27.9266 32.1698 27.8834 32.1694 27.8508C32.1679 27.6894 32.1688 27.528 32.1688 27.3663C32.1688 26.7791 32.1688 26.1917 32.1688 25.6042C32.1688 25.5464 32.1709 25.4884 32.1726 25.4118H32.3233C32.4948 25.4118 32.6663 25.4158 32.8376 25.4109C33.3873 25.3951 33.9735 25.8605 34.0672 26.4514C34.1182 26.7738 34.0799 27.0786 33.9005 27.3524Z" fill="#FAF4FF"/>
<path id="Vector_13" d="M26.891 12.8032C26.8903 12.9108 26.8794 13.0181 26.8582 13.1235C26.816 13.3355 26.7024 13.503 26.5123 13.6107C26.3632 13.6946 26.2112 13.7736 26.0582 13.8497C25.8963 13.9304 25.7313 14.0046 25.5679 14.0824C25.4611 14.1334 25.3628 14.1973 25.2834 14.2863C25.1455 14.4415 25.0897 14.6195 25.1203 14.8278C25.1584 15.0842 25.906 21.1278 25.9411 21.3945C25.973 21.6369 26.0513 22.3175 26.0411 22.414C26.013 22.6825 25.8349 22.8552 25.5711 22.8697C25.4343 22.8771 22.9467 22.901 22.9125 22.8998C22.6948 22.8921 22.5417 22.7838 22.4522 22.5902C22.4151 22.5105 22.3898 22.4258 22.3771 22.3388C22.3307 22.0045 21.7487 17.4439 21.715 17.1868C21.7001 17.0735 21.6705 16.9672 21.5806 16.8856C21.4347 16.7528 21.2592 16.7424 21.1017 16.8663C21.0309 16.9221 20.9854 16.9968 20.9492 17.0787C20.8148 17.3828 20.6787 17.6862 20.5435 17.99C20.2674 18.6108 19.6643 19.969 19.6357 20.0257C19.4876 20.3185 19.2493 20.4712 18.9204 20.4788C18.8278 20.4807 18.7359 20.4819 18.6434 20.4583C18.3942 20.3946 18.2159 20.2474 18.1086 20.0165C18.0143 19.8126 17.1457 17.8546 16.813 17.1088C16.7905 17.0546 16.7623 17.0029 16.7289 16.9547C16.6355 16.8272 16.5095 16.7508 16.3493 16.7886C16.1831 16.8276 16.0774 16.9409 16.0484 17.1126C16.0258 17.2428 16.0106 17.3739 15.9938 17.5049C15.9312 17.9951 15.3952 22.1568 15.3719 22.3362C15.352 22.4895 15.3031 22.6307 15.1931 22.7456C15.1123 22.8298 15.0157 22.8829 14.8986 22.8938C14.8596 22.8974 12.3281 22.8776 12.1815 22.8711C11.9274 22.8589 11.768 22.6975 11.7203 22.4906C11.6948 22.3757 11.69 22.2572 11.7063 22.1406C11.7579 21.7428 12.6173 14.9593 12.6352 14.7893C12.655 14.5996 12.5971 14.4317 12.4688 14.2894C12.3889 14.2008 12.2918 14.1355 12.1847 14.0848C12.0302 14.0115 11.2653 13.629 11.2525 13.6217C11.0324 13.4961 10.9126 13.3034 10.8786 13.056C10.8666 12.969 10.8592 9.72901 10.8819 9.63897C10.9291 9.45237 11.0428 9.31576 11.2169 9.23499C11.3542 9.17117 11.4937 9.1123 11.6354 9.05837C12.1293 8.86987 12.6378 8.73134 13.155 8.62496C13.2368 8.61021 13.3203 8.60715 13.403 8.61589C13.5363 8.62723 13.6341 8.697 13.6706 8.83001C13.688 8.89593 13.6969 8.96379 13.6971 9.03198C13.7 9.31112 13.7084 9.99376 13.7257 10.0565C13.7684 10.2138 13.895 10.3074 14.0623 10.3198C14.1693 10.3277 15.86 10.0996 15.9945 10.0746C16.1558 10.045 16.2706 9.94868 16.3367 9.80276C16.3707 9.72845 16.386 9.64475 16.4004 9.5635C16.4105 9.50688 16.4058 7.95274 16.4139 7.90505C16.4524 7.6736 16.5802 7.50854 16.8009 7.42925C16.9245 7.38393 17.0521 7.35029 17.182 7.32878C17.4715 7.28256 17.7625 7.2446 18.0535 7.20881C18.2033 7.19046 18.3545 7.18376 18.5058 7.17175C18.5058 7.07366 18.5232 2.50879 18.5236 2.48953C18.5251 2.4474 18.5368 2.40626 18.5575 2.36956C18.5582 2.36811 18.559 2.36671 18.5599 2.36537C18.596 2.31319 18.6498 2.27582 18.7113 2.26013C18.8221 2.23672 18.9365 2.23653 19.0474 2.25957C19.1679 2.28324 19.2338 2.37614 19.2338 2.43935C19.2338 2.5046 19.2349 2.66591 19.2349 2.70296C19.4048 2.68472 19.5957 2.66489 19.764 2.64756L19.7905 2.64484C19.9512 2.62842 20.1116 2.60803 20.2727 2.59953C20.5316 2.58526 20.7909 2.57257 21.0506 2.58899C21.4857 2.61706 21.9121 2.7238 22.3091 2.90404C22.5202 2.99851 22.717 3.11486 22.8925 3.26654C23.1068 3.45199 23.1757 3.67878 23.1118 3.95247C23.0834 4.07301 23.0347 4.18369 22.9768 4.29232C22.9029 4.43019 22.8273 4.56761 22.7616 4.70909C22.7247 4.78839 22.7043 4.87494 22.6796 4.95923C22.672 4.98755 22.6691 5.01694 22.6711 5.04623C22.6761 5.13685 22.7164 5.20324 22.8053 5.23756C22.9245 5.28378 23.0474 5.27279 23.1678 5.25558C23.3327 5.23201 23.4964 5.20968 23.6635 5.20279C24.1689 5.18012 24.6718 5.28641 25.1248 5.51171C25.1729 5.53526 25.2804 5.61025 25.2948 5.63213C25.2676 5.63723 25.0376 5.65932 24.9405 5.66927C24.3671 5.72843 23.8184 5.87863 23.2905 6.10962C22.9905 6.24068 22.6855 6.35952 22.3698 6.44946C22.1853 6.50203 21.9994 6.54179 21.8061 6.52764C21.7672 6.52603 21.7285 6.52025 21.6909 6.51041C21.4815 6.44753 21.3937 6.31172 21.4372 6.09896C21.4607 5.98477 21.5988 5.58578 21.6113 5.49495C21.634 5.33137 21.5679 5.23563 21.4135 5.17956C21.2915 5.13527 21.1625 5.13221 21.0366 5.13084C20.4179 5.12416 19.8332 5.25648 19.2996 5.58116C19.2872 5.58863 19.2755 5.59745 19.2588 5.60901C19.2384 5.73703 19.2463 7.03197 19.2533 7.16655C19.3163 7.17447 19.5373 7.19759 19.5908 7.20348C19.8144 7.22829 20.0385 7.2488 20.2611 7.28074C20.4446 7.30703 20.6268 7.34441 20.8086 7.38155C20.9245 7.40328 21.0332 7.45367 21.1247 7.52815C21.2606 7.64076 21.3324 7.78497 21.3399 7.96077C21.3417 7.99986 21.3399 8.03917 21.3399 8.07826C21.3399 8.52379 21.3385 8.96923 21.3411 9.41499C21.3422 9.50292 21.3513 9.59054 21.3683 9.67679C21.3808 9.734 21.4022 9.78893 21.4315 9.83958C21.5043 9.97167 21.6173 10.0528 21.7667 10.0775C22.0369 10.1211 23.0611 10.278 23.3037 10.3078C23.4201 10.322 23.5376 10.327 23.6549 10.3229C23.8846 10.3151 24.0467 10.1601 24.0467 9.9301C24.0467 9.87482 24.0569 8.92697 24.0694 8.8599C24.0985 8.69814 24.2361 8.62201 24.3586 8.61317C24.4671 8.6057 24.5722 8.62042 24.6782 8.64297C25.2671 8.76859 26.4679 9.20564 26.5041 9.22161C26.7777 9.34475 26.9068 9.56543 26.8869 9.855C26.8743 10.0498 26.8916 12.2943 26.891 12.8032Z" fill="#FAF4FF"/>
</g>
<defs>
<clipPath id="clip0_826_1217">
<rect width="37" height="35" fill="white"/>
</clipPath>
</defs>
</svg>
