<svg width="37" height="37" viewBox="0 0 37 37" fill="none" xmlns="http://www.w3.org/2000/svg">
<g id="call-connecting">
<path id="Vector" d="M12.157 3.90403C10.2382 3.41695 8.22711 3.62359 6.65148 4.5055C5.04633 5.40217 3.92088 6.99256 3.86553 9.11984C3.78066 12.4445 4.55003 16.9057 7.60535 22.1419C10.6219 27.3134 13.9521 30.413 16.716 32.2543C18.4613 33.4185 20.3894 33.4499 22.0369 32.6916C23.6605 31.9443 24.9779 30.4517 25.6624 28.6012C25.8327 28.1409 25.9012 27.6492 25.8629 27.1599C25.8247 26.6706 25.6807 26.1955 25.441 25.7673L23.6808 22.6271C23.1398 21.6606 22.269 20.9211 21.2276 20.5437C20.1863 20.1664 19.0439 20.1763 18.0093 20.5718L16.7805 21.0422C16.1846 21.2692 15.6366 21.164 15.3267 20.8577C14.2842 19.8338 13.5389 18.4445 13.2012 16.9463C13.0942 16.474 13.3119 15.9168 13.8322 15.5238L14.9411 14.6862C15.8375 14.0098 16.4564 13.0295 16.6816 11.9293C16.9068 10.8291 16.7228 9.68452 16.1643 8.71025L14.371 5.58298C14.1334 5.16895 13.8149 4.80695 13.4346 4.51851C13.0542 4.23008 12.6197 4.0211 12.157 3.90403ZM5.71053 9.16966C5.74743 7.74163 6.47067 6.72134 7.55184 6.11618C8.66253 5.49442 10.1791 5.30438 11.7031 5.69183C11.9264 5.74823 12.1361 5.84901 12.3196 5.98816C12.5031 6.12732 12.6568 6.30199 12.7713 6.50179L14.5628 9.62906C14.8979 10.2134 15.0084 10.8998 14.8735 11.5598C14.7387 12.2197 14.3678 12.8078 13.8304 13.2139L12.7215 14.0515C11.7621 14.7748 11.0979 16.0146 11.4005 17.3522C11.8101 19.164 12.716 20.8817 14.0333 22.1751C14.9964 23.1197 16.3691 23.1751 17.4392 22.7655L18.668 22.295C19.2888 22.0573 19.9744 22.0511 20.5995 22.2774C21.2245 22.5037 21.7472 22.9474 22.072 23.5274L23.8303 26.6695C24.0517 27.0643 24.0886 27.5366 23.9318 27.961C23.3967 29.4093 22.3912 30.496 21.2657 31.0145C20.1643 31.5218 18.9189 31.5071 17.7399 30.7193C15.2104 29.0329 12.0758 26.1418 9.19758 21.212C6.31754 16.2674 5.63489 12.1456 5.71238 9.16966H5.71053ZM23.6107 3.8044C23.3969 3.68549 23.1446 3.6564 22.9093 3.72353C22.674 3.79065 22.475 3.94849 22.3561 4.16233C22.2372 4.37616 22.2081 4.62847 22.2753 4.86376C22.3424 5.09904 22.5002 5.29802 22.7141 5.41693L23.4225 5.81176C25.6358 7.04127 27.5185 8.78839 28.9097 10.9038C30.3009 13.0192 31.1593 15.44 31.4114 17.9592L31.4704 18.5404C31.4774 18.6648 31.5095 18.7865 31.5648 18.8981C31.62 19.0098 31.6974 19.1091 31.7921 19.1901C31.8868 19.271 31.9969 19.3319 32.1158 19.3692C32.2347 19.4064 32.3599 19.4192 32.4838 19.4067C32.6078 19.3942 32.7279 19.3568 32.837 19.2966C32.9461 19.2364 33.0419 19.1548 33.1186 19.0566C33.1952 18.9584 33.2512 18.8457 33.2832 18.7253C33.3151 18.6048 33.3223 18.4792 33.3043 18.3559L33.2472 17.7766C32.9656 14.9604 32.0063 12.2542 30.4513 9.88943C28.8962 7.52467 26.7916 5.57166 24.3174 4.19738L23.6107 3.8044ZM21.4484 8.749C21.5744 8.53935 21.7785 8.38834 22.0159 8.32918C22.2532 8.27002 22.5044 8.30754 22.7141 8.4335L22.9428 8.57003C24.4321 9.46292 25.7097 10.6686 26.6874 12.1037C27.665 13.5387 28.3193 15.169 28.6051 16.8818L28.6863 17.3744C28.7095 17.4952 28.7084 17.6194 28.6828 17.7397C28.6573 17.8601 28.608 17.9741 28.5378 18.0751C28.4676 18.1761 28.3779 18.262 28.2739 18.3278C28.17 18.3937 28.054 18.438 27.9327 18.4583C27.8113 18.4786 27.6872 18.4745 27.5675 18.4461C27.4478 18.4177 27.335 18.3656 27.2357 18.293C27.1364 18.2204 27.0527 18.1286 26.9894 18.0231C26.9261 17.9176 26.8845 17.8006 26.8671 17.6788L26.7841 17.1862C26.5427 15.7372 25.9896 14.3579 25.1629 13.1436C24.3363 11.9293 23.2559 10.9089 21.9963 10.153L21.7676 10.0147C21.6636 9.95241 21.5729 9.87029 21.5007 9.77299C21.4285 9.67568 21.3762 9.56511 21.3467 9.44757C21.3172 9.33004 21.3112 9.20785 21.329 9.08799C21.3467 8.96812 21.3879 8.85293 21.4502 8.749H21.4484Z" fill="#101010"/>
</g>
</svg>
