<svg width="24" height="22" viewBox="0 0 24 22" fill="none" xmlns="http://www.w3.org/2000/svg">
<path d="M23.4529 0.876231C23.2348 0.693246 22.9694 0.571154 22.6852 0.523024C22.4009 0.474894 22.1085 0.502538 21.8393 0.602997L1.00907 8.52679C0.689456 8.64672 0.418787 8.86408 0.237901 9.14607C0.0570156 9.42806 -0.024274 9.75939 0.00629831 10.09C0.0368706 10.4207 0.177646 10.7328 0.407383 10.9791C0.637121 11.2255 0.943355 11.3928 1.27988 11.4559L6.7526 12.516V19.0955C6.75297 19.397 6.84528 19.6916 7.01792 19.9424C7.19057 20.1933 7.43587 20.3891 7.72303 20.5054C7.91665 20.5818 8.1233 20.6226 8.33236 20.6256C8.54001 20.6268 8.74581 20.5878 8.93765 20.5109C9.1295 20.4339 9.30352 20.3206 9.44947 20.1775L12.53 17.1938L17.1339 21.1174C17.419 21.3651 17.789 21.5014 18.172 21.5C18.337 21.5013 18.5011 21.4754 18.6572 21.4234C18.9178 21.3432 19.1519 21.198 19.3361 21.0023C19.5203 20.8066 19.6481 20.5673 19.7066 20.3087L23.9607 2.37356C24.0242 2.10284 24.0106 1.82047 23.9211 1.5567C23.8317 1.29293 23.6698 1.05771 23.4529 0.876231ZM1.37015 9.96947C1.36226 9.92339 1.37155 9.8761 1.39636 9.83606C1.42117 9.79601 1.45987 9.76582 1.50556 9.75088L18.9393 3.11675L7.27167 11.281L1.5507 10.1662C1.50083 10.1608 1.45479 10.1377 1.42145 10.1014C1.38812 10.0651 1.36984 10.0181 1.37015 9.96947ZM8.49034 19.2485C8.45904 19.2803 8.41816 19.3016 8.37356 19.3095C8.32895 19.3173 8.28292 19.3113 8.24209 19.2922C8.20242 19.2755 8.16856 19.248 8.14455 19.2131C8.12054 19.1782 8.1074 19.1374 8.10668 19.0955V13.4231L11.5032 16.3304L8.49034 19.2485ZM18.3977 20.0136C18.3899 20.0515 18.372 20.0867 18.3456 20.1157C18.3193 20.1447 18.2855 20.1664 18.2476 20.1787C18.2098 20.1909 18.1692 20.1932 18.1302 20.1853C18.0911 20.1774 18.0549 20.1596 18.0253 20.1338L8.5129 12.0242L22.6179 2.1659L18.3977 20.0136Z" fill="white"/>
</svg>
