<svg width="24" height="24" viewBox="0 0 24 24" fill="none" xmlns="http://www.w3.org/2000/svg">
<path d="M11.9974 0.5C9.9922 0.500327 8.02194 1.02502 6.28214 2.02201C4.54233 3.019 3.09345 4.45364 2.07927 6.18355C1.06508 7.91347 0.520857 9.87854 0.500588 11.8838C0.480319 13.889 0.984712 15.8646 1.96372 17.6147L0.971625 21.076C0.890612 21.3469 0.884394 21.6346 0.953629 21.9088C1.02287 22.1829 1.16498 22.4332 1.3649 22.6332C1.56482 22.8331 1.81511 22.9752 2.08923 23.0445C2.36336 23.1137 2.65111 23.1075 2.92199 23.0265L6.38304 22.0343C7.91662 22.893 9.6266 23.3887 11.3816 23.4833C13.1367 23.5779 14.89 23.269 16.507 22.5802C18.124 21.8914 19.5616 20.8411 20.7094 19.5099C21.8572 18.1788 22.6846 16.6023 23.128 14.9014C23.5714 13.2006 23.6191 11.4207 23.2674 9.69861C22.9157 7.97648 22.1739 6.35789 21.099 4.96719C20.0242 3.57649 18.6449 2.4507 17.0671 1.67629C15.4893 0.901892 13.755 0.499489 11.9974 0.5ZM11.9974 22.1471C10.1763 22.1465 8.38888 21.6558 6.82272 20.7265C6.71506 20.669 6.59525 20.6381 6.47323 20.6363C6.41223 20.6326 6.35108 20.6403 6.29285 20.6588L2.54996 21.7299C2.51078 21.742 2.46906 21.7431 2.42927 21.7332C2.38949 21.7234 2.35315 21.7028 2.32417 21.6738C2.29518 21.6449 2.27465 21.6085 2.26477 21.5687C2.25489 21.5289 2.25605 21.4872 2.26811 21.448L3.33912 17.7049C3.36441 17.6166 3.37145 17.5241 3.35982 17.433C3.34819 17.3419 3.31813 17.2541 3.27148 17.175C2.12975 15.2492 1.65693 12.9999 1.92667 10.7774C2.19641 8.55487 3.19356 6.48396 4.7628 4.88725C6.33204 3.29053 8.38526 2.25766 10.6026 1.94951C12.82 1.64137 15.077 2.07525 17.0221 3.18358C18.9673 4.29191 20.4912 6.01246 21.3567 8.07722C22.2221 10.142 22.3805 12.435 21.8071 14.5991C21.2336 16.7633 19.9606 18.677 18.1863 20.0422C16.412 21.4074 14.2361 22.1474 11.9974 22.1471ZM17.8034 13.8941L15.4923 12.575C15.249 12.4378 14.9737 12.3675 14.6944 12.3715C14.4151 12.3755 14.1419 12.4535 13.9027 12.5975L12.4596 13.4657C11.6395 13.0292 10.9682 12.3579 10.5318 11.5377L11.3999 10.0946C11.5439 9.85532 11.6219 9.58209 11.6259 9.3028C11.6299 9.02351 11.5597 8.74818 11.4224 8.5049L10.1034 6.19363C9.97532 5.97178 9.79134 5.78737 9.5698 5.65879C9.34825 5.53021 9.09688 5.46194 8.84073 5.46078C7.82608 5.46078 6.85282 5.8631 6.1343 6.57955C5.41578 7.29601 5.01063 8.26814 5.00764 9.28284C5.00616 10.5571 5.25585 11.8191 5.74243 12.9968C6.229 14.1745 6.94293 15.2447 7.84339 16.1463C8.74384 17.0479 9.81316 17.7631 10.9902 18.251C12.1672 18.739 13.4289 18.9902 14.7031 18.9902H14.7144C15.729 18.9872 16.7011 18.582 17.4175 17.8635C18.1339 17.1449 18.5362 16.1716 18.5362 15.1569C18.535 14.9007 18.4668 14.6493 18.3382 14.4277C18.2096 14.2062 18.0252 14.0222 17.8034 13.8941ZM14.7144 17.6373H14.7031C12.4895 17.6343 10.3675 16.7528 8.8033 15.1863C7.23908 13.6199 6.36049 11.4966 6.3605 9.28284C6.36348 8.62696 6.6261 7.99895 7.09091 7.53622C7.55572 7.0735 8.18488 6.81372 8.84073 6.81373C8.87548 6.81657 8.90779 6.83273 8.93092 6.85882L10.25 9.1701C10.2681 9.20536 10.2765 9.24477 10.2746 9.28436C10.2726 9.32394 10.2602 9.36231 10.2387 9.39559L9.19022 11.1657C9.13086 11.2568 9.09558 11.3615 9.08769 11.4699C9.07981 11.5784 9.09957 11.687 9.14512 11.7858C9.76145 13.1462 10.8513 14.2361 12.2116 14.8525C12.3103 14.898 12.419 14.9178 12.5274 14.9099C12.6359 14.902 12.7406 14.8667 12.8316 14.8074L14.6016 13.7588C14.6349 13.7373 14.6733 13.7249 14.7129 13.7229C14.7524 13.721 14.7919 13.7294 14.8271 13.7475L17.1382 15.0667C17.1643 15.0898 17.1805 15.1221 17.1833 15.1569C17.1833 15.8128 16.9236 16.4419 16.4609 16.9068C15.9982 17.3716 15.3702 17.6343 14.7144 17.6373Z" fill="white"/>
</svg>
